# This file uses centimeters as units for non-parametric coordinates.

mtllib puzzle_tile.mtl
g default
v -159.735504 2.117547 -1.734985
v -157.000763 0.194349 -1.734985
v -153.265015 0.194349 2.000771
v -153.265015 2.117547 4.735512
v -153.265015 4.744679 5.736504
v -157.000763 4.744679 4.735512
v -159.735504 4.744679 2.000771
v -160.736496 4.744679 -1.734985
v -2.999237 0.194349 -1.734985
v -0.264496 2.117547 -1.734985
v 0.736496 4.744679 -1.734985
v -0.264496 4.744679 2.000771
v -2.999237 4.744679 4.735512
v -6.734985 4.744679 5.736504
v -6.734985 2.117547 4.735512
v -6.734985 0.194349 2.000771
v -157.000763 19.805649 -1.734985
v -159.735504 17.882454 -1.734985
v -160.736496 15.255320 -1.734985
v -159.735504 15.255320 2.000771
v -157.000763 15.255320 4.735512
v -153.265015 15.255320 5.736504
v -153.265015 17.882454 4.735512
v -153.265015 19.805649 2.000771
v -153.265015 20.509588 -1.734985
v -0.264496 17.882454 -1.734985
v -2.999237 19.805649 -1.734985
v -6.734985 20.509588 -1.734985
v -6.734985 19.805649 2.000771
v -6.734985 17.882454 4.735512
v -6.734985 15.255320 5.736504
v -2.999237 15.255320 4.735512
v -0.264496 15.255320 2.000771
v 0.736496 15.255320 -1.734985
v -157.000763 15.255320 -154.735504
v -159.735504 15.255320 -152.000763
v -160.736496 15.255320 -148.265015
v -159.735504 17.882454 -148.265015
v -157.000763 19.805649 -148.265015
v -153.265015 20.509588 -148.265015
v -153.265015 19.805649 -152.000763
v -153.265015 17.882454 -154.735504
v -153.265015 15.255320 -155.736496
v -0.264496 15.255320 -152.000763
v -2.999237 15.255320 -154.735504
v -6.734985 15.255320 -155.736496
v -6.734985 17.882454 -154.735504
v -6.734985 19.805649 -152.000763
v -6.734985 20.509588 -148.265015
v -2.999237 19.805649 -148.265015
v -0.264496 17.882454 -148.265015
v 0.736496 15.255320 -148.265015
v -157.000763 0.194349 -148.265015
v -159.735504 2.117547 -148.265015
v -160.736496 4.744679 -148.265015
v -159.735504 4.744679 -152.000763
v -157.000763 4.744679 -154.735504
v -153.265015 4.744679 -155.736496
v -153.265015 2.117547 -154.735504
v -153.265015 0.194349 -152.000763
v -0.264496 2.117547 -148.265015
v -2.999237 0.194349 -148.265015
v -6.734985 0.194349 -152.000763
v -6.734985 2.117547 -154.735504
v -6.734985 4.744679 -155.736496
v -2.999237 4.744679 -154.735504
v -0.264496 4.744679 -152.000763
v 0.736496 4.744679 -148.265015
v -159.173676 2.474391 1.493340
v -156.493347 0.589470 1.493340
v -156.493347 2.474391 4.173668
v -3.506668 0.589471 1.493340
v -0.826340 2.474391 1.493340
v -3.506668 2.474391 4.173668
v -156.493347 19.410530 1.493340
v -159.173676 17.525608 1.493340
v -156.493347 17.525610 4.173668
v -0.826340 17.525610 1.493340
v -3.506668 19.410530 1.493340
v -3.506668 17.525608 4.173668
v -156.493347 17.525610 -154.173660
v -159.173676 17.525610 -151.493332
v -156.493347 19.410530 -151.493332
v -0.826340 17.525610 -151.493332
v -3.506668 17.525610 -154.173660
v -3.506668 19.410530 -151.493332
v -156.493347 0.589471 -151.493332
v -159.173676 2.474391 -151.493332
v -156.493347 2.474391 -154.173660
v -0.826340 2.474391 -151.493332
v -3.506668 0.589470 -151.493332
v -3.506668 2.474391 -154.173660
vt 0.040940 0.095551
vt 0.079128 0.122422
vt 0.076547 0.872332
vt 0.035452 0.901421
vt 0.121303 0.155355
vt 0.124171 0.836211
vt 0.163572 0.124040
vt 0.127492 0.076424
vt 0.877713 0.079406
vt 0.844693 0.121554
vt 0.098406 0.035334
vt 0.904623 0.041241
vt 0.135094 0.144580
vt 0.275497 0.263858
vt 0.268714 0.276754
vt 0.149136 0.134057
vt 0.283126 0.251602
vt 0.291344 0.239863
vt 0.875957 0.163853
vt 0.923604 0.127788
vt 0.920706 0.877808
vt 0.878575 0.844810
vt 0.964740 0.098771
vt 0.958845 0.904759
vt 0.855452 0.135354
vt 0.736058 0.275675
vt 0.723204 0.268878
vt 0.865958 0.149406
vt 0.748263 0.283320
vt 0.759969 0.291532
vt 0.299276 0.301920
vt 0.280612 0.681576
vt 0.240105 0.708346
vt 0.325742 0.319931
vt 0.311113 0.664518
vt 0.339135 0.324711
vt 0.325184 0.660746
vt 0.335302 0.310677
vt 0.679822 0.325785
vt 0.674885 0.339156
vt 0.318204 0.280255
vt 0.697935 0.299373
vt 0.688962 0.335381
vt 0.674306 0.680033
vt 0.660932 0.675212
vt 0.719467 0.318321
vt 0.700729 0.698077
vt 0.731239 0.723267
vt 0.251806 0.716574
vt 0.134176 0.850639
vt 0.264010 0.724233
vt 0.144687 0.864676
vt 0.276865 0.731042
vt 0.155449 0.878464
vt 0.302141 0.700536
vt 0.681774 0.719716
vt 0.708584 0.760150
vt 0.320259 0.674117
vt 0.664720 0.689260
vt 0.716800 0.748404
vt 0.850718 0.866072
vt 0.836274 0.876073
vt 0.724446 0.736160
vt 0.864771 0.855565
vt 0.095546 0.958818
vt 0.122472 0.920650
vt 0.872306 0.923734
vt 0.901335 0.964865
vt 0.099687 0.112991
vt 0.076451 0.072295
vt 0.117388 0.096626
vt 0.927828 0.076775
vt 0.903427 0.117675
vt 0.887097 0.099968
vt 0.325193 0.309419
vt 0.300596 0.290226
vt 0.307663 0.281514
vt 0.718257 0.307786
vt 0.690301 0.325272
vt 0.709600 0.300706
vt 0.290476 0.699201
vt 0.281820 0.692118
vt 0.309775 0.674633
vt 0.699395 0.709768
vt 0.692315 0.718467
vt 0.674831 0.690543
vt 0.072362 0.923339
vt 0.096731 0.882417
vt 0.113071 0.900102
vt 0.900141 0.887209
vt 0.923319 0.927946
vt 0.882428 0.903548
vn -0.575237 -0.817976 0.004212
vn -0.773126 -0.634236 0.004469
vn -0.773126 -0.634236 -0.004469
vn -0.575237 -0.817976 -0.004212
vn -0.997123 -0.075541 0.006296
vn -0.997123 -0.075541 -0.006296
vn -0.006296 -0.075542 0.997123
vn -0.004469 -0.634237 0.773126
vn 0.004469 -0.634237 0.773126
vn 0.006296 -0.075542 0.997123
vn -0.004212 -0.817975 0.575238
vn 0.004212 -0.817975 0.575238
vn -0.864602 -0.058306 0.499064
vn -0.864602 0.058306 0.499064
vn -0.997123 0.075541 0.006296
vn -0.499064 -0.058307 0.864601
vn -0.499064 0.058307 0.864601
vn -0.006296 0.075542 0.997123
vn 0.997123 -0.075542 0.006296
vn 0.773126 -0.634237 0.004469
vn 0.773126 -0.634237 -0.004469
vn 0.997123 -0.075542 -0.006296
vn 0.575238 -0.817975 0.004212
vn 0.575238 -0.817975 -0.004212
vn 0.499064 -0.058307 0.864601
vn 0.499064 0.058307 0.864601
vn 0.006296 0.075542 0.997123
vn 0.864601 -0.058307 0.499064
vn 0.864601 0.058307 0.499064
vn 0.997123 0.075542 0.006296
vn -0.773126 0.634236 0.004469
vn -0.773126 0.634236 -0.004469
vn -0.997123 0.075541 -0.006296
vn -0.575237 0.817976 0.004212
vn -0.575237 0.817976 -0.004212
vn -0.184831 0.982765 0.003315
vn -0.004657 0.999978 0.004657
vn -0.004657 0.999978 -0.004657
vn -0.184831 0.982765 -0.003315
vn -0.003315 0.982765 0.184831
vn 0.003315 0.982765 0.184831
vn 0.004657 0.999978 0.004657
vn -0.004212 0.817975 0.575238
vn -0.004469 0.634237 0.773126
vn 0.004469 0.634237 0.773126
vn 0.004212 0.817975 0.575238
vn 0.184831 0.982765 0.003315
vn 0.184831 0.982765 -0.003315
vn 0.004657 0.999978 -0.004657
vn 0.575238 0.817976 0.004212
vn 0.773126 0.634237 0.004469
vn 0.773126 0.634237 -0.004469
vn 0.575238 0.817976 -0.004212
vn 0.997123 0.075542 -0.006296
vn -0.864601 0.058306 -0.499064
vn -0.864601 -0.058306 -0.499064
vn -0.499063 0.058307 -0.864602
vn -0.499064 -0.058307 -0.864601
vn -0.006296 0.075542 -0.997123
vn -0.006296 -0.075542 -0.997123
vn -0.004469 0.634237 -0.773126
vn 0.004469 0.634237 -0.773126
vn 0.006296 0.075542 -0.997123
vn -0.004212 0.817975 -0.575238
vn 0.004212 0.817975 -0.575238
vn -0.003314 0.982765 -0.184831
vn 0.003315 0.982765 -0.184831
vn 0.499064 0.058307 -0.864601
vn 0.499064 -0.058307 -0.864601
vn 0.006296 -0.075542 -0.997123
vn 0.864601 0.058307 -0.499064
vn 0.864601 -0.058307 -0.499064
vn -0.004212 -0.817975 -0.575238
vn -0.004469 -0.634237 -0.773126
vn 0.004469 -0.634237 -0.773126
vn 0.004212 -0.817975 -0.575238
vn -0.921728 -0.317242 0.223103
vn -0.632910 -0.636644 0.440578
vn -0.409234 -0.815510 0.409233
vn -0.440579 -0.636643 0.632911
vn -0.223104 -0.317252 0.921725
vn 0.409234 -0.815509 0.409234
vn 0.632909 -0.636644 0.440579
vn 0.921725 -0.317251 0.223104
vn 0.440579 -0.636644 0.632909
vn 0.223104 -0.317251 0.921725
vn -0.165493 0.972226 0.165493
vn -0.409234 0.815510 0.409232
vn -0.632910 0.636644 0.440578
vn -0.921729 0.317240 0.223103
vn -0.440579 0.636644 0.632910
vn -0.223104 0.317251 0.921725
vn 0.921725 0.317251 0.223104
vn 0.632909 0.636645 0.440578
vn 0.409234 0.815509 0.409234
vn 0.165494 0.972226 0.165494
vn 0.440579 0.636644 0.632909
vn 0.223104 0.317251 0.921724
vn -0.223100 0.317252 -0.921726
vn -0.440581 0.636643 -0.632910
vn -0.632910 0.636644 -0.440579
vn -0.921728 0.317242 -0.223103
vn -0.409233 0.815510 -0.409233
vn -0.165493 0.972226 -0.165493
vn 0.921724 0.317252 -0.223104
vn 0.632909 0.636645 -0.440579
vn 0.440580 0.636644 -0.632909
vn 0.223101 0.317251 -0.921725
vn 0.409233 0.815510 -0.409234
vn 0.165494 0.972226 -0.165494
vn -0.409233 -0.815510 -0.409233
vn -0.632911 -0.636643 -0.440579
vn -0.921728 -0.317241 -0.223104
vn -0.440581 -0.636643 -0.632909
vn -0.223101 -0.317252 -0.921725
vn 0.921724 -0.317252 -0.223105
vn 0.632910 -0.636644 -0.440579
vn 0.409234 -0.815509 -0.409234
vn 0.440581 -0.636644 -0.632909
vn 0.223102 -0.317252 -0.921725
s 1
g pCube6
usemtl initialShadingGroup
f 2/1/1 1/2/2 54/3/3 53/4/4
f 1/2/2 8/5/5 55/6/6 54/3/3
f 5/7/7 4/8/8 15/9/9 14/10/10
f 4/8/8 3/11/11 16/12/12 15/9/9
f 8/5/5 7/13/13 20/14/14 19/15/15
f 7/13/13 6/16/16 21/17/17 20/14/14
f 6/16/16 5/7/7 22/18/18 21/17/17
f 11/19/19 10/20/20 61/21/21 68/22/22
f 10/20/20 9/23/23 62/24/24 61/21/21
f 14/10/10 13/25/25 32/26/26 31/27/27
f 13/25/25 12/28/28 33/29/29 32/26/26
f 12/28/28 11/19/19 34/30/30 33/29/29
f 19/15/15 18/31/31 38/32/32 37/33/33
f 18/31/31 17/34/34 39/35/35 38/32/32
s 4
f 17/34/36 25/36/37 40/37/38 39/35/39
f 25/36/37 24/38/40 29/39/41 28/40/42
s 1
f 24/38/43 23/41/44 30/42/45 29/39/46
f 23/41/44 22/18/18 31/27/27 30/42/45
s 4
f 28/40/42 27/43/47 50/44/48 49/45/49
s 1
f 27/43/50 26/46/51 51/47/52 50/44/53
f 26/46/51 34/30/30 52/48/54 51/47/52
f 37/33/33 36/49/55 56/50/56 55/6/6
f 36/49/55 35/51/57 57/52/58 56/50/56
f 35/51/57 43/53/59 58/54/60 57/52/58
f 43/53/59 42/55/61 47/56/62 46/57/63
f 42/55/61 41/58/64 48/59/65 47/56/62
s 4
f 41/58/66 40/37/38 49/45/49 48/59/67
s 1
f 46/57/63 45/60/68 66/61/69 65/62/70
f 45/60/68 44/63/71 67/64/72 66/61/69
f 44/63/71 52/48/54 68/22/22 67/64/72
f 60/65/73 59/66/74 64/67/75 63/68/76
f 59/66/74 58/54/60 65/62/70 64/67/75
f 5/7/7 14/10/10 31/27/27 22/18/18
s 4
f 25/36/37 28/40/42 49/45/49 40/37/38
s 1
f 43/53/59 46/57/63 65/62/70 58/54/60
f 11/19/19 68/22/22 52/48/54 34/30/30
f 55/6/6 8/5/5 19/15/15 37/33/33
f 7/13/13 8/5/5 1/2/2 69/69/77
f 69/69/78 1/2/2 2/1/1 70/70/79
f 70/70/79 3/11/11 4/8/8 71/71/80
f 4/8/8 5/7/7 6/16/16 71/71/81
f 71/71/80 6/16/16 7/13/13 69/69/78
f 69/69/78 70/70/79 71/71/80
f 72/72/82 9/23/23 10/20/20 73/73/83
f 10/20/20 11/19/19 12/28/28 73/73/84
f 73/73/83 12/28/28 13/25/25 74/74/85
f 13/25/25 14/10/10 15/9/9 74/74/86
f 74/74/85 15/9/9 16/12/12 72/72/82
f 72/72/82 73/73/83 74/74/85
s 4
f 24/38/40 25/36/37 17/34/36 75/75/87
s 1
f 75/75/88 17/34/34 18/31/31 76/76/89
f 18/31/31 19/15/15 20/14/14 76/76/90
f 76/76/89 20/14/14 21/17/17 77/77/91
f 21/17/17 22/18/18 23/41/44 77/77/92
f 77/77/91 23/41/44 24/38/43 75/75/88
f 75/75/88 76/76/89 77/77/91
f 33/29/29 34/30/30 26/46/51 78/78/93
f 78/78/94 26/46/51 27/43/50 79/79/95
s 4
f 27/43/47 28/40/42 29/39/41 79/79/96
s 1
f 79/79/95 29/39/46 30/42/45 80/80/97
f 30/42/45 31/27/27 32/26/26 80/80/98
f 80/80/97 32/26/26 33/29/29 78/78/94
f 78/78/94 79/79/95 80/80/97
f 42/55/61 43/53/59 35/51/57 81/81/99
f 81/81/100 35/51/57 36/49/55 82/82/101
f 36/49/55 37/33/33 38/32/32 82/82/102
f 82/82/101 38/32/32 39/35/35 83/83/103
s 4
f 39/35/39 40/37/38 41/58/66 83/83/104
s 1
f 83/83/103 41/58/64 42/55/61 81/81/100
f 81/81/100 82/82/101 83/83/103
f 51/47/52 52/48/54 44/63/71 84/84/105
f 84/84/106 44/63/71 45/60/68 85/85/107
f 45/60/68 46/57/63 47/56/62 85/85/108
f 85/85/107 47/56/62 48/59/65 86/86/109
s 4
f 48/59/67 49/45/49 50/44/48 86/86/110
s 1
f 86/86/109 50/44/53 51/47/52 84/84/106
f 84/84/106 85/85/107 86/86/109
f 87/87/111 53/4/4 54/3/3 88/88/112
f 54/3/3 55/6/6 56/50/56 88/88/113
f 88/88/112 56/50/56 57/52/58 89/89/114
f 57/52/58 58/54/60 59/66/74 89/89/115
f 89/89/114 59/66/74 60/65/73 87/87/111
f 87/87/111 88/88/112 89/89/114
f 67/64/72 68/22/22 61/21/21 90/90/116
f 90/90/117 61/21/21 62/24/24 91/91/118
f 91/91/118 63/68/76 64/67/75 92/92/119
f 64/67/75 65/62/70 66/61/69 92/92/120
f 92/92/119 66/61/69 67/64/72 90/90/117
f 90/90/117 91/91/118 92/92/119
