# This file uses centimeters as units for non-parametric coordinates.

mtllib rock_1.mtl
g default
v 40.472069 -1.934359 -50.829430
v 9.412252 -1.934359 -73.265198
v -27.101471 -1.934359 -65.878838
v -51.006775 -1.934359 -33.294117
v -58.847561 -1.934359 9.242215
v 9.412238 -1.934359 49.213295
v 40.410885 -1.934359 27.945129
v 40.463940 14.839383 -47.191189
v 9.412252 14.839383 -69.635979
v -27.101471 14.839383 -62.249638
v -51.006775 14.839383 -29.664913
v -58.847561 14.839383 12.871421
v -27.330820 14.839383 45.456142
v 9.412238 14.839383 52.842499
v 40.407711 14.839383 31.574337
v 40.463940 30.866154 -40.916626
v 9.412252 30.866154 -63.361423
v -27.101471 30.866154 -55.975075
v -51.006775 30.866154 -23.390350
v -58.847561 27.465630 18.275127
v -27.330820 28.632685 51.198029
v 9.412238 28.632685 58.584389
v 40.410885 28.193142 37.180946
v 40.472069 38.948799 -39.083855
v 9.412252 38.948799 -61.519627
v -27.101471 38.948799 -54.133266
v -50.977600 38.948799 -21.548552
v -58.847561 33.779625 21.065939
v -27.330820 35.145828 53.885208
v 9.412238 35.145828 61.271568
v 40.584671 34.236439 39.770931
v 40.630684 44.243484 -38.979897
v 9.412252 44.243484 -61.239250
v -27.101471 44.243484 -53.852894
v -50.997066 44.243484 -21.268173
v -58.847561 43.917938 22.673174
v -27.324945 46.196583 55.257889
v 9.412238 46.196583 62.644253
v 41.500950 45.421452 41.376087
v 54.202950 62.392193 0.018617
v 33.247650 57.921806 -31.679504
v 7.798824 57.921806 -48.535828
v -21.140516 57.921806 -42.681690
v -40.297714 57.766056 -16.844776
v -45.307442 64.607819 17.712440
v -21.391771 67.211418 43.566593
v 7.798814 67.278313 49.415783
v 33.247643 67.197380 32.565468
v 43.298176 75.606415 0.022576
v 0.000000 66.893303 -8.187187
v 65.586830 0.182011 28.368818
v 87.610954 0.182011 0.211542
v 89.047249 13.450409 0.173599
v 65.586830 12.958916 30.578520
v 66.270279 0.182011 -31.064911
v 66.270279 13.450409 -29.683247
v 89.053406 26.718813 0.173599
v 65.586830 21.697367 33.908276
v 66.270279 26.127932 -27.781752
v 89.057976 39.847153 0.161671
v 65.586830 28.858141 36.831676
v 66.270279 32.521481 -27.349415
v 87.938049 51.048252 0.025768
v 65.586830 37.069351 39.584728
v 66.270279 36.709698 -27.349415
v -60.909218 -3.714110 20.980356
v -32.090229 -3.996037 49.509155
v -32.090229 10.019072 52.541492
v -60.909218 10.300993 24.012693
v 1.095556 -4.277958 56.983753
v 1.095556 9.737150 60.016090
v 34.838451 54.974583 -33.252499
v 8.146464 54.974583 -51.272995
v -22.424906 54.974583 -45.088715
v -42.603073 54.852390 -17.797873
v -48.224888 60.149837 18.781315
v -22.670174 62.683414 46.085686
v 8.146454 62.735901 52.266083
v 35.025955 62.505386 34.463867
v 45.647793 72.759193 0.021723
v 69.564713 0.182011 23.283192
v 69.824127 13.047688 25.086935
v 69.825241 22.604315 27.815285
v 69.826065 30.842922 30.208521
v 69.623795 39.594151 32.439789
v 43.795120 48.486622 33.906307
v 36.944420 64.357376 28.243097
v 35.062916 68.716179 26.687733
v 71.187447 0.182011 -23.858408
v 71.518394 13.450409 -22.803841
v 71.519806 26.264076 -21.340475
v 71.520859 34.209408 -21.010502
v 71.262825 40.013489 -21.041817
v 43.757908 48.425182 -29.994133
v 37.329063 59.072388 -25.585686
v 35.563423 61.996574 -24.374933
v 13.778243 -1.934359 46.217781
v 13.777796 14.839383 49.846985
v 13.778243 28.570778 55.569817
v 13.802719 35.017742 58.243309
v 13.931772 46.087410 59.648739
v 11.932298 62.703434 49.758732
v 11.383154 67.266922 47.042500
v 40.463940 21.535017 -44.569813
v 9.412252 21.535017 -67.014610
v -27.101471 21.535017 -59.628258
v -51.006775 21.535017 -27.043539
v -58.847561 20.114351 15.128969
v -27.330820 20.601923 47.854973
v 9.412238 20.601923 55.241337
v 13.777981 20.576057 52.237854
v 40.409035 20.418291 33.916656
v 65.586830 16.609648 31.969616
v 69.824593 17.040239 26.226778
v 89.049828 18.993656 0.173599
v 71.518974 18.803679 -22.192476
v 66.270279 18.746799 -28.888842
v -56.597397 -1.934359 -2.964947
v -56.597397 14.839383 0.664259
v -56.597397 20.522057 3.026219
v -56.597397 28.441519 6.317884
v -56.589024 35.263084 8.836349
v -56.594612 44.011364 10.062799
v -46.611526 58.629562 8.283747
v -43.869740 62.644360 7.795141
v -65.093590 -3.241468 15.283528
v 7.718068 -3.757761 57.640854
v 7.718068 13.015977 61.270061
v -31.300922 13.274123 52.690575
v -65.093590 13.532269 18.912735
vt 0.375000 0.312500
vt 0.402778 0.312500
vt 0.430556 0.312500
vt 0.458333 0.312500
vt 0.486111 0.312500
vt 0.541667 0.312500
vt 0.569445 0.312500
vt 0.625000 0.312500
vt 0.375000 0.387688
vt 0.402778 0.387688
vt 0.430556 0.387688
vt 0.458333 0.387688
vt 0.486111 0.387688
vt 0.513889 0.387688
vt 0.541667 0.387688
vt 0.569445 0.387688
vt 0.597222 0.387688
vt 0.625000 0.387688
vt 0.375000 0.462876
vt 0.402778 0.462876
vt 0.430556 0.462876
vt 0.458333 0.462876
vt 0.486111 0.462876
vt 0.513889 0.462876
vt 0.541667 0.462876
vt 0.569445 0.462876
vt 0.597222 0.462876
vt 0.625000 0.462876
vt 0.375000 0.538064
vt 0.402778 0.538064
vt 0.430556 0.538064
vt 0.458333 0.538064
vt 0.486111 0.538064
vt 0.513889 0.538064
vt 0.541667 0.538064
vt 0.569445 0.538064
vt 0.597222 0.538064
vt 0.625000 0.538064
vt 0.375000 0.613252
vt 0.402778 0.613252
vt 0.430556 0.613252
vt 0.458333 0.613252
vt 0.486111 0.613252
vt 0.513889 0.613252
vt 0.541667 0.613252
vt 0.569445 0.613252
vt 0.597222 0.613252
vt 0.625000 0.613252
vt 0.375000 0.688440
vt 0.402778 0.688440
vt 0.430556 0.688440
vt 0.458333 0.688440
vt 0.486111 0.688440
vt 0.513889 0.688440
vt 0.541667 0.688440
vt 0.569445 0.688440
vt 0.597222 0.688440
vt 0.625000 0.688440
vt 0.619694 0.743314
vt 0.527133 0.689874
vt 0.421875 0.708434
vt 0.353173 0.790309
vt 0.353173 0.897191
vt 0.421875 0.979066
vt 0.527133 0.997626
vt 0.619694 0.944186
vt 0.656250 0.843750
vt 0.500000 0.837500
vt 0.569445 0.312500
vt 0.597222 0.312500
vt 0.569445 0.387688
vt 0.625000 0.312500
vt 0.625000 0.387688
vt 0.569445 0.462876
vt 0.625000 0.462876
vt 0.569445 0.538064
vt 0.625000 0.538064
vt 0.597222 0.613252
vt 0.569445 0.613252
vt 0.625000 0.613252
vt 0.486111 0.312500
vt 0.513889 0.312500
vt 0.513889 0.387688
vt 0.486111 0.387688
vt 0.541667 0.312500
vt 0.541667 0.387688
vt 0.625000 0.672239
vt 0.375000 0.672239
vt 0.402778 0.672239
vt 0.430556 0.672239
vt 0.458333 0.672239
vt 0.486111 0.672239
vt 0.513889 0.672239
vt 0.541667 0.672239
vt 0.569445 0.672239
vt 0.597222 0.672239
vt 0.574462 0.312500
vt 0.574462 0.387688
vt 0.574462 0.462876
vt 0.574462 0.538064
vt 0.574462 0.613252
vt 0.574462 0.613252
vt 0.574462 0.672239
vt 0.626297 0.761455
vt 0.574462 0.688440
vt 0.618600 0.312500
vt 0.618600 0.387688
vt 0.618600 0.462876
vt 0.618600 0.538064
vt 0.618600 0.613252
vt 0.618600 0.613252
vt 0.618600 0.672239
vt 0.628117 0.921044
vt 0.618600 0.688440
vt 0.545579 0.312500
vt 0.545579 0.387688
vt 0.545579 0.462876
vt 0.545579 0.538064
vt 0.545579 0.613252
vt 0.545579 0.672239
vt 0.540169 0.697401
vt 0.545579 0.688440
vt 0.625000 0.419100
vt 0.375000 0.419100
vt 0.402778 0.419100
vt 0.430556 0.419100
vt 0.458333 0.419100
vt 0.486111 0.419100
vt 0.513889 0.419100
vt 0.541667 0.419100
vt 0.545579 0.419100
vt 0.569445 0.419100
vt 0.569445 0.419100
vt 0.574462 0.419100
vt 0.597222 0.419100
vt 0.618600 0.419100
vt 0.625000 0.419100
vt 0.478139 0.312500
vt 0.478139 0.387688
vt 0.478139 0.419100
vt 0.478139 0.462876
vt 0.478139 0.538064
vt 0.478139 0.613252
vt 0.478139 0.672239
vt 0.353173 0.820982
vt 0.478139 0.688440
vt 0.486111 0.312500
vt 0.541667 0.312500
vt 0.541667 0.387688
vt 0.513889 0.387688
vt 0.486111 0.387688
vn 0.576842 0.173079 -0.798309
vn 0.576842 0.173079 -0.798309
vn 0.573211 0.205505 -0.793219
vn 0.571747 0.217155 -0.791170
vn -0.193960 0.207453 -0.958824
vn -0.193960 0.207453 -0.958824
vn -0.191724 0.254897 -0.947771
vn -0.191963 0.250283 -0.948951
vn -0.799766 0.126947 -0.586736
vn -0.799766 0.126947 -0.586736
vn -0.795659 0.161848 -0.583723
vn -0.797207 0.149665 -0.584860
vn -0.982676 0.039192 -0.181138
vn -0.982677 0.039192 -0.181138
vn -0.982258 0.049335 -0.180927
vn -0.982412 0.045894 -0.181001
vn -0.696114 -0.151820 0.701695
vn -0.696114 -0.151820 0.701695
vn -0.696114 -0.151820 0.701695
vn -0.696114 -0.151820 0.701695
vn -0.216666 -0.206446 0.954168
vn -0.216666 -0.206446 0.954168
vn -0.216666 -0.206446 0.954168
vn -0.216666 -0.206446 0.954168
vn 0.556971 -0.175625 0.811751
vn 0.556975 -0.175580 0.811758
vn 0.551876 -0.219843 0.804427
vn 0.551623 -0.221799 0.804063
vn 0.785960 -0.103359 0.609577
vn 0.786650 -0.094066 0.610192
vn 0.789794 -0.092162 0.606409
vn 0.787109 -0.129681 0.603028
vn 0.810490 -0.031568 -0.584901
vn 0.810827 -0.012869 -0.585144
vn 0.805502 0.001312 -0.592592
vn 0.805028 -0.012073 -0.593114
vn 0.558376 0.302436 -0.772495
vn 0.558376 0.302436 -0.772496
vn 0.566568 0.253859 -0.783936
vn 0.568542 0.240558 -0.786697
vn -0.185113 0.358261 -0.915086
vn -0.185113 0.358261 -0.915086
vn -0.189580 0.292868 -0.937170
vn -0.189264 0.298024 -0.935607
vn -0.785500 0.225613 -0.576271
vn -0.785500 0.225613 -0.576271
vn -0.793663 0.176911 -0.582066
vn -0.791567 0.190643 -0.580583
vn -0.981017 0.072422 -0.179892
vn -0.980996 0.073190 -0.179692
vn -0.981803 0.065494 -0.178253
vn -0.981755 0.065067 -0.178674
vn -0.688958 -0.281727 0.667807
vn -0.688802 -0.281785 0.667944
vn -0.687247 -0.283986 0.668613
vn -0.687700 -0.283241 0.668464
vn -0.182473 -0.377860 0.907704
vn -0.182473 -0.377860 0.907703
vn -0.182582 -0.376499 0.908247
vn -0.182571 -0.376637 0.908192
vn 0.534624 -0.324948 0.780119
vn 0.534409 -0.326058 0.779803
vn 0.532252 -0.330539 0.779392
vn 0.533437 -0.324673 0.781046
vn 0.801701 -0.187938 0.567411
vn 0.808069 -0.087832 0.582503
vn 0.829621 -0.080525 0.552489
vn 0.827709 -0.180808 0.531230
vn 0.784758 0.034493 -0.618842
vn 0.784551 0.045302 -0.618407
vn 0.775603 0.027720 -0.630612
vn 0.775614 0.020012 -0.630890
vn 0.580318 0.122269 -0.805159
vn 0.580744 0.114278 -0.806025
vn -0.195962 0.152250 -0.968720
vn -0.195878 0.154998 -0.968301
vn -0.803220 0.089900 -0.588859
vn -0.802675 0.097044 -0.588468
vn -0.983398 0.038799 -0.177263
vn -0.983413 0.036601 -0.177651
vn -0.707879 -0.158102 0.688412
vn -0.704526 -0.183769 0.685472
vn -0.192395 -0.217070 0.957008
vn -0.192047 -0.224847 0.955281
vn 0.547813 -0.201483 0.811977
vn 0.550608 -0.178909 0.815367
vn 0.849215 -0.048644 0.525802
vn 0.854741 -0.151901 0.496331
vn 0.769803 0.027130 -0.637705
vn 0.768695 0.032618 -0.638783
vn 0.520377 0.428572 -0.738603
vn 0.512056 0.455990 -0.727923
vn -0.172205 0.495655 -0.851277
vn -0.172665 0.491568 -0.853550
vn -0.710143 0.473573 -0.520985
vn -0.719211 0.452063 -0.527612
vn -0.901994 0.392778 -0.179253
vn -0.897412 0.403056 -0.179437
vn -0.700540 0.304761 0.645263
vn -0.708357 0.258428 0.656845
vn -0.189986 0.268643 0.944318
vn -0.190095 0.266639 0.944864
vn 0.540320 0.252115 0.802803
vn 0.539722 0.257747 0.801415
vn 0.859482 -0.017670 0.510860
vn 0.868034 -0.130421 0.479069
vn 0.765898 0.051975 -0.640858
vn 0.765012 0.055681 -0.641604
vn 0.446344 0.619191 -0.646050
vn 0.446755 0.619148 -0.645807
vn 0.436136 0.620202 -0.652024
vn 0.436136 0.620202 -0.652024
vn -0.148338 0.663533 -0.733294
vn -0.148338 0.663533 -0.733294
vn -0.148338 0.663533 -0.733294
vn -0.148338 0.663533 -0.733294
vn -0.619364 0.640035 -0.454691
vn -0.619357 0.640035 -0.454699
vn -0.619093 0.640060 -0.455024
vn -0.619093 0.640060 -0.455024
vn -0.790043 0.587305 -0.175800
vn -0.803714 0.567603 -0.178524
vn -0.798172 0.562642 -0.215302
vn -0.782122 0.584271 -0.216594
vn -0.639012 0.523427 0.563638
vn -0.639311 0.523430 0.563296
vn -0.648373 0.523472 0.552802
vn -0.648373 0.523472 0.552802
vn -0.169232 0.514858 0.840406
vn -0.169231 0.514858 0.840406
vn -0.169490 0.514856 0.840355
vn -0.169490 0.514855 0.840355
vn 0.486661 0.490032 0.723208
vn 0.488001 0.485309 0.725486
vn 0.484692 0.485515 0.727564
vn 0.483075 0.490821 0.725075
vn 0.782845 0.471490 0.406019
vn 0.750457 0.517677 0.410882
vn 0.764429 0.520197 0.380845
vn 0.799731 0.467239 0.376985
vn 0.648735 0.568729 -0.505658
vn 0.645134 0.573241 -0.505170
vn 0.639167 0.569970 -0.516333
vn 0.642760 0.566561 -0.515625
vn 0.008159 0.937959 -0.346650
vn 0.042164 0.976989 -0.209083
vn -0.084764 0.987475 -0.133073
vn -0.120504 0.976248 -0.180054
vn -0.179381 0.966436 -0.183914
vn -0.171516 0.961389 -0.215204
vn -0.108032 0.988930 -0.101719
vn -0.034069 0.999215 -0.020224
vn -0.001056 0.999978 -0.006541
vn -0.001143 0.999978 -0.006529
vn -0.092134 0.993439 0.067754
vn -0.226392 0.957717 0.177554
vn -0.180130 0.979553 -0.089610
vn -0.089544 0.881610 -0.463407
vn 0.012031 -0.243329 0.969869
vn 0.012054 -0.193827 0.980962
vn 0.012054 -0.193827 0.980962
vn 0.012036 -0.236132 0.971646
vn 0.578947 0.134533 -0.804190
vn 0.569525 0.159031 -0.806443
vn 0.568089 0.162668 -0.806731
vn 0.578947 0.134533 -0.804190
vn 0.021505 -0.381183 0.924250
vn 0.016588 -0.374937 0.926902
vn 0.015805 -0.374942 0.926914
vn 0.020871 -0.379337 0.925023
vn 0.516884 0.234509 -0.823308
vn 0.517996 0.234325 -0.822661
vn 0.479652 0.191984 -0.856198
vn 0.481580 0.196227 -0.854152
vn 0.028962 -0.281846 0.959022
vn 0.027748 -0.303639 0.952383
vn 0.437790 0.079121 -0.895589
vn 0.442030 0.093839 -0.892078
vn 0.299016 0.840862 0.451155
vn 0.300857 0.839961 0.451608
vn 0.317112 0.831822 0.455536
vn 0.317112 0.831822 0.455536
vn 0.032251 -0.220564 0.974839
vn 0.032251 -0.220564 0.974839
vn 0.414253 0.003049 -0.910157
vn 0.414253 0.003049 -0.910157
vn 0.337429 0.762320 -0.552277
vn 0.359789 0.748315 -0.557294
vn 0.359031 0.933325 0.000958
vn 0.357840 0.933519 0.022204
vn -0.237066 0.860750 0.450455
vn -0.187330 0.963805 0.189701
vn -0.694340 0.170265 0.699215
vn -0.528700 0.122801 0.839879
vn -0.958386 0.060369 -0.279020
vn -0.972104 0.049600 -0.229244
vn -0.804514 -0.125599 0.580502
vn -0.804514 -0.125599 0.580502
vn 0.705187 -0.149936 0.692987
vn 0.814067 -0.122815 0.567637
vn -0.080110 -0.210790 0.974243
vn -0.080110 -0.210790 0.974243
vn -0.060489 0.953039 0.296747
vn -0.216640 0.036258 0.975578
vn 0.780607 0.471998 0.409721
vn 0.754783 0.508196 0.414776
vn 0.650564 0.569383 -0.502563
vn 0.641253 0.578598 -0.504003
vn 0.786774 -0.092286 0.610303
vn 0.790040 -0.086354 0.606943
vn 0.808243 -0.070144 0.584657
vn 0.829588 -0.063610 0.554740
vn 0.848733 -0.024576 0.528251
vn 0.856692 0.002600 0.515822
vn 0.741680 0.525430 0.416934
vn 0.745237 0.525987 0.409829
vn 0.758930 0.527870 0.381286
vn 0.810124 0.043570 -0.584637
vn 0.804688 0.053129 -0.591316
vn 0.782808 0.081390 -0.616917
vn 0.774536 0.060220 -0.629657
vn 0.771110 0.028413 -0.636067
vn 0.773470 0.017987 -0.633578
vn 0.430803 0.698962 -0.570842
vn 0.430803 0.698962 -0.570842
vn 0.622840 0.596218 -0.506552
vn 0.621707 0.596225 -0.507934
vn 0.610460 0.596195 -0.521432
vn 0.556976 -0.175574 0.811758
vn 0.553235 -0.208989 0.806383
vn 0.534428 -0.326221 0.779722
vn 0.532604 -0.330094 0.779340
vn 0.545986 -0.219102 0.808637
vn 0.541394 0.244211 0.804521
vn 0.488163 0.484641 0.725824
vn 0.484896 0.484843 0.727876
vn -0.689376 -0.281573 0.667441
vn -0.689376 -0.281573 0.667441
vn -0.182473 -0.377860 0.907704
vn -0.182473 -0.377859 0.907704
vn -0.982676 0.039191 -0.181138
vn -0.982179 0.051044 -0.180886
vn -0.980846 0.075667 -0.179485
vn -0.981441 0.073315 -0.177196
vn -0.983363 0.042529 -0.176604
vn -0.921246 0.344975 -0.179718
vn -0.833037 0.523566 -0.178684
vn -0.830210 0.515543 -0.212053
vn 0.981239 -0.040770 0.188435
vn 0.981239 -0.040770 0.188435
vn -0.038395 0.979444 0.198029
vn -0.082709 0.984220 0.156429
vn -0.119391 0.985406 0.121330
vn -0.703403 0.150311 -0.694717
vn -0.703403 0.150311 -0.694717
s 1
g pCylinder2
usemtl initialShadingGroup
f 1/1/1 2/2/2 9/10/3 8/9/4
s 2
f 2/2/5 3/3/6 10/11/7 9/10/8
s 3
f 3/3/9 4/4/10 11/12/11 10/11/12
s 4
f 4/4/13 118/138/14 119/139/15 11/12/16
s off
f 66/81/17 67/82/18 68/83/19 69/84/20
f 67/82/21 70/85/22 71/86/23 68/83/24
s 5
f 6/6/25 97/115/26 98/116/27 14/15/28
s 6
f 51/69/29 81/97/30 82/98/31 54/71/32
s 7
f 52/70/33 89/106/34 90/107/35 53/17/36
s 1
f 104/124/37 105/125/38 17/20/39 16/19/40
s 2
f 105/125/41 106/126/42 18/21/43 17/20/44
s 3
f 106/126/45 107/127/46 19/22/47 18/21/48
s 4
f 107/127/49 120/140/50 121/141/51 19/22/52
s 8
f 108/128/53 109/129/54 21/24/55 20/23/56
s 9
f 109/129/57 110/130/58 22/25/59 21/24/60
s 5
f 110/130/61 111/131/62 99/117/63 22/25/64
s 6
f 113/133/65 114/134/66 83/99/67 58/74/68
s 7
f 115/135/69 116/136/70 91/108/71 57/27/72
s 1
f 16/19/40 17/20/39 25/30/73 24/29/74
s 2
f 17/20/44 18/21/43 26/31/75 25/30/76
s 3
f 18/21/48 19/22/47 27/32/77 26/31/78
s 4
f 19/22/52 121/141/51 122/142/79 27/32/80
s 8
f 20/23/56 21/24/55 29/34/81 28/33/82
s 9
f 21/24/60 22/25/59 30/35/83 29/34/84
s 5
f 22/25/64 99/117/63 100/118/85 30/35/86
s 6
f 58/74/68 83/99/67 84/100/87 61/76/88
s 7
f 57/27/72 91/108/71 92/109/89 60/37/90
s 1
f 24/29/74 25/30/73 33/40/91 32/39/92
s 2
f 25/30/76 26/31/75 34/41/93 33/40/94
s 3
f 26/31/78 27/32/77 35/42/95 34/41/96
s 4
f 27/32/80 122/142/79 123/143/97 35/42/98
s 8
f 28/33/82 29/34/81 37/44/99 36/43/100
s 9
f 29/34/84 30/35/83 38/45/101 37/44/102
s 5
f 30/35/86 100/118/85 101/119/103 38/45/104
s 6
f 61/76/88 84/100/87 85/101/105 64/79/106
s 7
f 60/37/90 92/109/89 93/110/107 63/78/108
s 1
f 72/88/109 73/89/110 42/50/111 41/49/112
s 2
f 73/89/113 74/90/114 43/51/115 42/50/116
s 3
f 74/90/117 75/91/118 44/52/119 43/51/120
s 4
f 75/91/121 124/144/122 125/146/123 44/52/124
s 8
f 76/92/125 77/93/126 46/54/127 45/53/128
s 9
f 77/93/129 78/94/130 47/55/131 46/54/132
s 5
f 78/94/133 102/120/134 103/122/135 47/55/136
s 10
f 79/95/137 87/103/138 88/105/139 48/56/140
s 11
f 80/96/141 95/112/142 96/114/143 49/57/144
s 12
f 41/66/145 42/65/146 50/68/147
f 42/65/146 43/64/148 50/68/147
f 43/64/148 44/63/149 50/68/147
f 44/63/149 125/145/150 45/62/151 50/68/147
f 45/62/151 46/61/152 50/68/147
f 46/61/152 47/60/153 50/68/147
f 47/60/153 103/121/154 48/59/155 50/68/147
f 48/59/155 88/104/156 49/67/157 50/68/147
f 49/67/157 96/113/158 41/66/145 50/68/147
s 13
f 15/16/159 7/7/160 51/69/161 54/71/162
s 14
f 1/8/163 8/18/164 56/73/165 55/72/166
s 13
f 23/26/167 112/132/168 113/133/169 58/74/170
s 14
f 117/137/171 104/123/172 16/28/173 59/75/174
s 13
f 31/36/175 23/26/167 58/74/170 61/76/176
s 14
f 16/28/173 24/38/177 62/77/178 59/75/174
s 15
f 85/101/179 86/102/180 39/46/181 64/79/182
s 13
f 39/46/183 31/36/175 61/76/176 64/79/184
s 14
f 24/38/177 32/48/185 65/80/186 62/77/178
s 15
f 93/110/187 94/111/188 40/47/189 63/78/190
s 17
f 129/150/191 130/151/192 69/84/193 68/83/194
s 18
f 130/151/195 126/147/196 66/81/197 69/84/198
s 19
f 127/148/199 128/149/200 71/86/201 70/85/202
s 17
f 128/149/203 129/150/191 68/83/194 71/86/204
s 1
f 32/39/92 33/40/91 73/89/110 72/88/109
s 2
f 33/40/94 34/41/93 74/90/114 73/89/113
s 3
f 34/41/96 35/42/95 75/91/118 74/90/117
s 4
f 35/42/98 123/143/97 124/144/122 75/91/121
s 8
f 36/43/100 37/44/99 77/93/126 76/92/125
s 9
f 37/44/102 38/45/101 78/94/130 77/93/129
s 5
f 38/45/104 101/119/103 102/120/134 78/94/133
s 10
f 39/46/205 86/102/206 87/103/138 79/95/137
s 11
f 40/47/207 94/111/208 95/112/142 80/96/141
s 6
f 82/98/31 81/97/30 52/70/209 53/17/210
f 83/99/67 114/134/66 115/135/211 57/27/212
f 84/100/87 83/99/67 57/27/212 60/37/213
f 85/101/105 84/100/87 60/37/213 63/78/214
s 15
f 40/47/189 86/102/180 85/101/179 63/78/190
s 10
f 87/103/138 86/102/206 40/47/215 80/96/216
f 88/105/139 87/103/138 80/96/216 49/57/217
s 7
f 90/107/35 89/106/34 55/72/218 56/73/219
f 91/108/71 116/136/70 117/137/220 59/75/221
f 92/109/89 91/108/71 59/75/221 62/77/222
f 93/110/107 92/109/89 62/77/222 65/80/223
s 15
f 32/48/224 94/111/188 93/110/187 65/80/225
s 11
f 95/112/142 94/111/208 32/48/226 72/87/227
f 96/114/143 95/112/142 72/87/227 41/58/228
s 5
f 98/116/27 97/115/26 7/7/229 15/16/230
f 99/117/63 111/131/62 112/132/231 23/26/232
f 100/118/85 99/117/63 23/26/232 31/36/233
f 101/119/103 100/118/85 31/36/233 39/46/234
f 102/120/134 101/119/103 39/46/234 79/95/235
f 103/122/135 102/120/134 79/95/235 48/56/236
s 1
f 8/9/4 9/10/3 105/125/38 104/124/37
s 2
f 9/10/8 10/11/7 106/126/42 105/125/41
s 3
f 10/11/12 11/12/11 107/127/46 106/126/45
s 4
f 11/12/16 119/139/15 120/140/50 107/127/49
s 8
f 12/13/237 13/14/238 109/129/54 108/128/53
s 9
f 13/14/239 14/15/240 110/130/58 109/129/57
s 5
f 14/15/28 98/116/27 111/131/62 110/130/61
f 112/132/231 111/131/62 98/116/27 15/16/230
s 13
f 113/133/169 112/132/168 15/16/159 54/71/162
s 6
f 54/71/32 82/98/31 114/134/66 113/133/65
f 115/135/211 114/134/66 82/98/31 53/17/210
s 7
f 53/17/36 90/107/35 116/136/70 115/135/69
f 117/137/220 116/136/70 90/107/35 56/73/219
s 14
f 8/18/164 104/123/172 117/137/171 56/73/165
s 4
f 119/139/15 118/138/14 5/5/241 12/13/242
f 120/140/50 119/139/15 12/13/242 108/128/243
f 121/141/51 120/140/50 108/128/243 20/23/244
f 122/142/79 121/141/51 20/23/244 28/33/245
f 123/143/97 122/142/79 28/33/245 36/43/246
f 124/144/122 123/143/97 36/43/246 76/92/247
f 125/146/123 124/144/122 76/92/247 45/53/248
s 19
f 6/6/249 14/15/250 128/149/200 127/148/199
s 17
f 14/15/251 13/14/252 129/150/191 128/149/203
f 13/14/252 12/13/253 130/151/192 129/150/191
s 18
f 12/13/254 5/5/255 126/147/196 130/151/195
